<svg xmlns="http://www.w3.org/2000/svg" width="17" height="150" fill="none" viewBox="0 0 17 150"><g clip-path="url(#a)"><path fill="#fff" d="M0 0h17v150H0z"/><g filter="url(#b)"><path fill="#c9b497" d="M.15 3c0-1.657 1.334-3 2.982-3h9.692a2.99 2.99 0 0 1 2.983 3v3.922c0 .382-.072.76-.213 1.114l-.835 2.1a3.02 3.02 0 0 0 0 2.228l.835 2.1c.14.354.213.732.213 1.114v118.844c0 .382-.072.76-.213 1.114l-.835 2.1a3.02 3.02 0 0 0 0 2.228l.835 2.1c.14.354.213.732.213 1.114V147c0 1.657-1.335 3-2.982 3H3.132a2.99 2.99 0 0 1-2.983-3v-3.922c0-.382.073-.76.213-1.114l.835-2.1a3.02 3.02 0 0 0 0-2.228l-.835-2.1a3 3 0 0 1-.213-1.114V15.578c0-.382.073-.76.213-1.114l.835-2.1a3.02 3.02 0 0 0 0-2.228l-.835-2.1A3 3 0 0 1 .15 6.922z"/></g><g filter="url(#c)"><path fill="#673232" d="M0 138.6c0-.663.534-1.2 1.193-1.2H17v2.7H1.193A1.196 1.196 0 0 1 0 138.9z"/></g><g filter="url(#d)"><path fill="#673232" d="M0 11.1c0-.663.534-1.2 1.193-1.2H17v2.7H1.193A1.197 1.197 0 0 1 0 11.4z"/></g></g><defs><filter id="b" width="17.658" height="152" x="-1.851" y="-2" color-interpolation-filters="sRGB" filterUnits="userSpaceOnUse"><feFlood flood-opacity="0" result="BackgroundImageFix"/><feBlend in="SourceGraphic" in2="BackgroundImageFix" result="shape"/><feColorMatrix in="SourceAlpha" result="hardAlpha" values="0 0 0 0 0 0 0 0 0 0 0 0 0 0 0 0 0 0 127 0"/><feOffset dx="-7" dy="-2"/><feGaussianBlur stdDeviation="1"/><feComposite in2="hardAlpha" k2="-1" k3="1" operator="arithmetic"/><feColorMatrix values="0 0 0 0 0.653846 0 0 0 0 0.529783 0 0 0 0 0.421228 0 0 0 1 0"/><feBlend in2="shape" result="effect1_innerShadow_81_38"/></filter><filter id="c" width="20" height="4.7" x="-3" y="135.4" color-interpolation-filters="sRGB" filterUnits="userSpaceOnUse"><feFlood flood-opacity="0" result="BackgroundImageFix"/><feBlend in="SourceGraphic" in2="BackgroundImageFix" result="shape"/><feColorMatrix in="SourceAlpha" result="hardAlpha" values="0 0 0 0 0 0 0 0 0 0 0 0 0 0 0 0 0 0 127 0"/><feOffset dx="-3" dy="-2"/><feGaussianBlur stdDeviation="2.35"/><feComposite in2="hardAlpha" k2="-1" k3="1" operator="arithmetic"/><feColorMatrix values="0 0 0 0 0.185897 0 0 0 0 0.123931 0 0 0 0 0.123931 0 0 0 1 0"/><feBlend in2="shape" result="effect1_innerShadow_81_38"/></filter><filter id="d" width="20" height="4.7" x="-3" y="7.9" color-interpolation-filters="sRGB" filterUnits="userSpaceOnUse"><feFlood flood-opacity="0" result="BackgroundImageFix"/><feBlend in="SourceGraphic" in2="BackgroundImageFix" result="shape"/><feColorMatrix in="SourceAlpha" result="hardAlpha" values="0 0 0 0 0 0 0 0 0 0 0 0 0 0 0 0 0 0 127 0"/><feOffset dx="-3" dy="-2"/><feGaussianBlur stdDeviation="2.35"/><feComposite in2="hardAlpha" k2="-1" k3="1" operator="arithmetic"/><feColorMatrix values="0 0 0 0 0.185897 0 0 0 0 0.123931 0 0 0 0 0.123931 0 0 0 1 0"/><feBlend in2="shape" result="effect1_innerShadow_81_38"/></filter><clipPath id="a"><path fill="#fff" d="M0 0h17v150H0z"/></clipPath></defs></svg>